<?xml version="1.0" encoding="UTF-8"?>
<svg id="Layer_1" data-name="Layer 1" xmlns="http://www.w3.org/2000/svg" viewBox="0 0 300 300">
  <defs>
    <style>
      .cls-1 {
        fill-rule: evenodd;
      }
    </style>
  </defs>
  <path class="cls-1" d="M150,0C67.16,0,0,67.16,0,150s67.16,150,150,150,150-67.16,150-150S232.84,0,150,0ZM153.6,172.22h57l33.98,33.98-33.39,33.39-32.59-32.59v44.39l-23.61,23.61-23.61-23.61v-44.39l-32.59,32.59-33.39-33.39,32.59-32.59h-44.51l-23.61-23.61,23.61-23.61h44.51l-32.59-32.59,33.39-33.39,32.59,32.59v-44.39l23.61-23.61,23.61,23.61v44.39l32.59-32.59,33.39,33.39-33.98,33.98h-57c-12.27,0-22.22,9.95-22.22,22.22s9.95,22.22,22.22,22.22Z"/>
</svg>