<?xml version="1.0" encoding="UTF-8"?>
<svg id="Layer_1" xmlns="http://www.w3.org/2000/svg" version="1.1" viewBox="0 0 600 615.6">
  <!-- Generator: Adobe Illustrator 29.4.0, SVG Export Plug-In . SVG Version: 2.1.0 Build 152)  -->
  <defs>
    <style>
      .st0 {
        fill: none;
      }

      .st1 {
        fill-rule: evenodd;
      }

      .st2 {
        fill: #00d5aa;
      }
    </style>
  </defs>
  <g>
    <path class="st1" d="M100,464.3h55.9v16.5h-55.9c-2.5,0-4.5.6-5.9,1.8-1.4,1.3-2,3.1-2,5.4v28.3c0,2.3.6,4.1,2,5.4,1.4,1.2,3.4,1.8,5.9,1.8h55.9v16.5h-55.9c-6.8,0-12.6-2.2-17.3-6.7s-7.1-10.2-7.1-17v-28.3c0-6.8,2.4-12.4,7.1-16.8h0c4.7-4.6,10.5-6.8,17.3-6.8h0Z"/>
    <path class="st1" d="M227.1,514.6l22.6,25.3h-22.1l-37.2-41.8h40.9c1.9,0,3.4-.8,4.3-2.3.9-1.5,1.3-3.6,1.3-6.3s-.4-4.8-1.3-6.3c-1-1.6-2.5-2.3-4.3-2.3h-46.7v59.1h-16.5v-75.6h64.2c6.7,0,11.9,2.6,15.7,7.8h0c3.6,4.7,5.4,10.5,5.4,17.4s-1.8,12.6-5.4,17.4h0c-3.8,5.2-9.1,7.8-15.7,7.8h-5.3v-.2Z"/>
    <path class="st1" d="M323.9,539.9c6.8,0,12.6-2.2,17.3-6.7,4.7-4.5,7.1-10.2,7.1-17v-28.3c0-6.8-2.4-12.4-7.1-16.8h0c-4.7-4.6-10.5-6.8-17.3-6.8h-37c-6.8,0-12.6,2.3-17.3,6.8h0c-4.7,4.4-7.1,10-7.1,16.8v28.3c0,6.8,2.4,12.4,7.1,17,4.7,4.5,10.5,6.7,17.3,6.7h37ZM331.8,516.3v-28.3c0-2.3-.6-4.1-2-5.4-1.4-1.2-3.4-1.8-5.9-1.8h-37c-2.5,0-4.5.6-5.9,1.8-1.4,1.3-2,3.1-2,5.4v28.3c0,2.3.6,4.1,2,5.4,1.4,1.2,3.4,1.8,5.9,1.8h37c2.5,0,4.5-.6,5.9-1.8,1.4-1.3,2-3.1,2-5.4Z"/>
    <path class="st1" d="M378.4,464.3h56v16.5h-56c-2.9,0-6,2.3-6,6.6s3.1,6.4,6,6.4h38.6c6.2,0,11.3,2.3,15.3,6.9,3.8,4.4,5.7,9.8,5.7,16.1s-1.9,11.7-5.7,16.1c-4,4.6-9.1,6.9-15.3,6.9h-56v-16.5h56c2.9,0,6-2.3,6-6.6s-3.1-6.6-6-6.6h-38.6c-6.2,0-11.3-2.3-15.3-6.9h0c-3.9-4.3-5.8-9.7-5.8-16s2-11.7,6-16.3c3.9-4.5,9-6.8,15.2-6.8v.2Z"/>
    <path class="st1" d="M464.8,464.3h56v16.5h-56c-2.9,0-6,2.3-6,6.6s3.1,6.4,6,6.4h38.6c6.2,0,11.3,2.3,15.3,6.9,3.8,4.4,5.7,9.8,5.7,16.1s-1.9,11.7-5.7,16.1c-4,4.6-9.1,6.9-15.3,6.9h-56v-16.5h56c2.9,0,6-2.3,6-6.6s-3.1-6.6-6-6.6h-38.6c-6.2,0-11.3-2.3-15.3-6.9h0c-3.9-4.3-5.8-9.7-5.8-16s2-11.7,6-16.3c3.9-4.5,9-6.8,15.2-6.8v.2Z"/>
  </g>
  <path class="st2" d="M315.6,264.6c-17.3,0-31.4-14.1-31.4-31.4h0c0-17.3,14.1-31.4,31.4-31.4h75.8l42.4-42.4-44.4-44.4-42.4,42.4v-69.4c-12.3-12.3-19.1-19.1-31.4-31.4-12.3,12.3-19.1,19.1-31.4,31.4v69.4l-42.4-42.4-44.4,44.4,42.4,42.4h-69.4l-31.4,31.4h0l31.4,31.4h69.4l-42.4,42.4,44.4,44.4,42.4-42.4v69.4l31.4,31.4,31.4-31.4v-69.4l42.4,42.4,44.4-44.4-42.4-42.4h-75.8Z"/>
  <rect class="st0" width="600" height="615.6"/>
</svg>