<?xml version="1.0" encoding="UTF-8"?>
<svg id="Symbol" xmlns="http://www.w3.org/2000/svg" version="1.1" viewBox="0 0 200 200">
  <!-- Generator: Adobe Illustrator 30.0.0, SVG Export Plug-In . SVG Version: 2.1.1 Build 123)  -->
  <defs>
    <style>
      .st0 {
        fill: #00d5aa;
      }

      .st1 {
        fill: none;
        opacity: .8;
      }
    </style>
  </defs>
  <rect class="st1" width="200" height="200"/>
  <path class="st0" d="M103.5,114.4c-8,0-14.4-6.5-14.4-14.4h0c0-8,6.5-14.4,14.4-14.4h34.8l19.5-19.5-20.4-20.4-19.5,19.5v-31.9c-5.6-5.6-8.8-8.8-14.4-14.4-5.6,5.6-8.8,8.8-14.4,14.4v31.9l-19.5-19.5-20.4,20.4,19.5,19.5h-31.9c-5.6,5.6-8.8,8.8-14.4,14.4h0c5.6,5.6,8.8,8.8,14.4,14.4h31.9l-19.5,19.5,20.4,20.4,19.5-19.5v31.9c5.6,5.6,8.8,8.8,14.4,14.4,5.6-5.6,8.8-8.8,14.4-14.4v-31.9l19.5,19.5,20.4-20.4-19.5-19.5h-34.8Z"/>
</svg>