<?xml version="1.0" encoding="UTF-8"?>
<svg id="Layer_1" xmlns="http://www.w3.org/2000/svg" version="1.1" viewBox="0 0 900 331.2">
  <!-- Generator: Adobe Illustrator 29.4.0, SVG Export Plug-In . SVG Version: 2.1.0 Build 152)  -->
  <defs>
    <style>
      .st0 {
        fill: none;
      }

      .st1 {
        fill-rule: evenodd;
      }

      .st1, .st2 {
        fill: #fff;
      }
    </style>
  </defs>
  <rect class="st0" width="900" height="332.3"/>
  <g>
    <g>
      <path class="st1" d="M311.5,119.6h68.8v20.3h-68.8c-3.1,0-5.5.7-7.3,2.2-1.7,1.6-2.5,3.8-2.5,6.6v34.9c0,2.8.8,5.1,2.5,6.6s4.2,2.2,7.3,2.2h68.8v20.3h-68.8c-8.4,0-15.5-2.7-21.3-8.2-5.8-5.6-8.8-12.5-8.8-20.9v-34.9c0-8.4,2.9-15.3,8.7-20.7h0c5.8-5.6,12.9-8.4,21.3-8.4h0Z"/>
      <path class="st1" d="M468,181.5l27.9,31.2h-27.3l-45.8-51.5h50.4c2.3,0,4.2-1,5.3-2.9,1.1-1.8,1.7-4.5,1.7-7.8s-.5-6-1.7-7.8c-1.2-1.9-3-2.9-5.3-2.9h-57.6v72.9h-20.3v-93.2h79.1c8.2,0,14.6,3.2,19.4,9.6h0c4.4,5.9,6.6,13,6.6,21.4s-2.2,15.6-6.6,21.4h0c-4.7,6.4-11.2,9.6-19.4,9.6h-6.6.2Z"/>
      <path class="st1" d="M587.3,212.7c8.4,0,15.5-2.7,21.3-8.2,5.8-5.6,8.8-12.5,8.8-20.9v-34.9c0-8.4-2.9-15.3-8.7-20.7h0c-5.8-5.6-12.9-8.4-21.3-8.4h-45.6c-8.4,0-15.5,2.8-21.3,8.4h0c-5.8,5.5-8.7,12.4-8.7,20.7v34.9c0,8.4,2.9,15.3,8.8,20.9,5.8,5.5,12.9,8.2,21.3,8.2h45.6-.2ZM597.1,183.6v-34.9c0-2.8-.8-5.1-2.5-6.6s-4.2-2.2-7.3-2.2h-45.6c-3.1,0-5.5.7-7.3,2.2-1.7,1.6-2.5,3.8-2.5,6.6v34.9c0,2.8.8,5.1,2.5,6.6s4.2,2.2,7.3,2.2h45.6c3.1,0,5.5-.7,7.3-2.2,1.7-1.6,2.5-3.8,2.5-6.6Z"/>
      <path class="st1" d="M654.4,119.6h69v20.3h-69c-3.6,0-7.4,2.8-7.4,8.1s3.8,7.9,7.4,7.9h47.6c7.6,0,13.9,2.8,18.9,8.5,4.6,5.5,7,12.1,7,19.9s-2.3,14.4-7,19.9c-5,5.7-11.3,8.5-18.9,8.5h-69v-20.3h69c3.6,0,7.4-2.8,7.4-8.1s-3.8-8.1-7.4-8.1h-47.6c-7.6,0-13.9-2.8-18.9-8.5h0c-4.8-5.4-7.1-11.9-7.1-19.7s2.4-14.5,7.3-20.1c4.9-5.6,11.1-8.4,18.7-8.4h0Z"/>
      <path class="st1" d="M760.8,119.6h69v20.3h-69c-3.6,0-7.4,2.8-7.4,8.1s3.8,7.9,7.4,7.9h47.6c7.6,0,13.9,2.8,18.9,8.5,4.6,5.5,7,12.1,7,19.9s-2.3,14.4-7,19.9c-5,5.7-11.3,8.5-18.9,8.5h-69v-20.3h69c3.6,0,7.4-2.8,7.4-8.1s-3.8-8.1-7.4-8.1h-47.6c-7.6,0-13.9-2.8-18.9-8.5h0c-4.8-5.4-7.1-11.9-7.1-19.7s2.4-14.5,7.3-20.1c4.9-5.6,11.1-8.4,18.7-8.4h0Z"/>
    </g>
    <path class="st2" d="M163,185.9c-10.9,0-19.8-8.9-19.8-19.8h0c0-10.9,8.9-19.8,19.8-19.8h47.8l26.7-26.7-28-28-26.7,26.7v-43.8c-7.7-7.7-12.1-12.1-19.8-19.8-7.7,7.7-12.1,12.1-19.8,19.8v43.8l-26.7-26.7-28,28,26.7,26.7h-43.8s-12.1,12.1-19.8,19.8l19.8,19.8h43.8l-26.7,26.7,28,28,26.7-26.7v43.8c7.7,7.7,19.8,19.8,19.8,19.8,0,0,12.1-12.1,19.8-19.8v-43.8l26.7,26.7,28-28-26.7-26.7h-47.8Z"/>
  </g>
</svg>