<?xml version="1.0" encoding="UTF-8"?>
<svg id="Layer_1" xmlns="http://www.w3.org/2000/svg" version="1.1" viewBox="0 0 300 300">
  <!-- Generator: Adobe Illustrator 29.4.0, SVG Export Plug-In . SVG Version: 2.1.0 Build 152)  -->
  <defs>
    <style>
      .st0 {
        fill: #fff;
        fill-rule: evenodd;
      }
    </style>
  </defs>
  <path class="st0" d="M150,0C67.2,0,0,67.2,0,150s67.2,150,150,150,150-67.2,150-150S232.8,0,150,0ZM153.6,172.2h57l34,34-33.4,33.4-32.6-32.6v44.4l-23.6,23.6-23.6-23.6v-44.4l-32.6,32.6-33.4-33.4,32.6-32.6h-44.5l-23.6-23.6,23.6-23.6h44.5l-32.6-32.6,33.4-33.4,32.6,32.6v-44.4l23.6-23.6,23.6,23.6v44.4l32.6-32.6,33.4,33.4-34,34h-57c-12.3,0-22.2,9.9-22.2,22.2s9.9,22.2,22.2,22.2Z"/>
</svg>